<svg width="36" height="38" viewBox="0 0 36 38" fill="none" xmlns="http://www.w3.org/2000/svg">
    <mask id="mask0_145_318" style="mask-type:luminance" maskUnits="userSpaceOnUse" x="6" y="6" width="24" height="25">
    <path d="M30 6.86182H6V30.8618H30V6.86182Z" fill="white"/>
    </mask>
    <g mask="url(#mask0_145_318)">
    <path d="M21.6788 20.8517C21.0688 19.4657 20.1804 18.2199 19.0688 17.1917C19.1469 17.0456 19.217 16.8954 19.2788 16.7417C19.3604 16.5333 19.4272 16.3195 19.4788 16.1017L19.5088 15.9217C19.5601 15.6547 19.5869 15.3836 19.5888 15.1117C19.5888 13.8943 19.1052 12.7269 18.2444 11.8661C17.3836 11.0053 16.2161 10.5217 14.9988 10.5217C13.7814 10.5217 12.6139 11.0053 11.7531 11.8661C10.8923 12.7269 10.4088 13.8943 10.4088 15.1117V15.1417C10.4117 15.3865 10.4352 15.6307 10.4788 15.8717C10.4988 15.9617 10.5188 16.0617 10.5388 16.1517C10.5788 16.3117 10.6288 16.4717 10.6788 16.6217C10.7518 16.8193 10.8352 17.0129 10.9288 17.2017C9.82047 18.229 8.9325 19.4708 8.31876 20.8517C8.03355 21.4566 7.93544 22.1328 8.03699 22.7938C8.13855 23.4547 8.43513 24.0703 8.88876 24.5617C10.4024 26.1788 12.4954 27.13 14.709 27.2068C16.9227 27.2837 19.0766 26.4799 20.6988 24.9717C20.8288 24.8317 20.9688 24.7017 21.0988 24.5617C21.5558 24.0725 21.8555 23.4573 21.9589 22.7958C22.0623 22.1343 21.9647 21.4571 21.6788 20.8517ZM14.9998 11.9817C15.7212 11.9839 16.4195 12.2361 16.9759 12.6952C17.5323 13.1544 17.9124 13.7922 18.0516 14.5C18.1907 15.2079 18.0802 15.9421 17.7389 16.5777C17.3976 17.2132 16.8467 17.7109 16.1798 17.986C15.5129 18.261 14.7712 18.2965 14.0811 18.0863C13.391 17.8762 12.7951 17.4333 12.3947 16.8332C11.9943 16.2331 11.8143 15.5128 11.8852 14.7949C11.9562 14.077 12.2737 13.4058 12.7838 12.8957C13.0748 12.605 13.4204 12.3746 13.8006 12.2178C14.1809 12.0609 14.5884 11.9807 14.9998 11.9817ZM19.9698 23.5717C19.8998 23.6517 19.8198 23.7217 19.7398 23.8017L19.6598 23.8817C18.3303 25.1147 16.5667 25.7711 14.7546 25.7074C12.9425 25.6437 11.2293 24.865 9.98976 23.5417C9.73662 23.2652 9.57262 22.9189 9.51911 22.5479C9.4656 22.1769 9.52506 21.7984 9.68976 21.4617C10.1987 20.3189 10.9256 19.2863 11.8298 18.4217C12.6807 19.2429 13.8172 19.7018 14.9998 19.7018C16.1824 19.7018 17.3188 19.2429 18.1698 18.4217C19.0861 19.2896 19.8175 20.3338 20.3198 21.4917C20.4813 21.8326 20.5343 22.2149 20.4715 22.5869C20.4087 22.9589 20.2332 23.3027 19.9688 23.5717H19.9698Z" fill="white"/>
    <path d="M27.7291 20.5717C27.206 19.3878 26.4472 18.3228 25.4991 17.4417L25.4891 17.4317C25.5591 17.2917 25.6291 17.1517 25.6891 17.0117C25.6891 17.0117 25.6991 17.0117 25.6891 17.0017C25.7395 16.8786 25.7797 16.7515 25.8091 16.6217C25.8205 16.5929 25.8272 16.5626 25.8291 16.5317C25.8663 16.4007 25.893 16.2669 25.9091 16.1317V16.1017C25.929 15.9492 25.939 15.7955 25.9391 15.6417C25.9397 15.116 25.8343 14.5956 25.6291 14.1117C25.4796 13.7619 25.2809 13.4353 25.0391 13.1417C24.9576 13.0436 24.8708 12.9502 24.7791 12.8617C24.2016 12.2856 23.4594 11.903 22.6551 11.7669C21.8508 11.6307 21.024 11.7477 20.2891 12.1017C20.5433 12.5372 20.7384 13.0046 20.8691 13.4917C21.2173 13.3066 21.6058 13.2105 22.0001 13.2117C22.6454 13.2119 23.2644 13.4677 23.7216 13.9231C24.1788 14.3785 24.4372 14.9964 24.4401 15.6417C24.4387 15.7353 24.432 15.8288 24.4201 15.9217C24.414 16.0166 24.3973 16.1105 24.3701 16.2017C24.2487 16.7384 23.9475 17.2175 23.5164 17.5594C23.0854 17.9014 22.5503 18.0857 22.0001 18.0817C21.9399 18.0833 21.8797 18.08 21.8201 18.0717C22.151 18.5277 22.4452 19.0092 22.7001 19.5117C23.3909 19.3942 24.0352 19.086 24.5601 18.6217C25.3291 19.3527 25.9444 20.2298 26.3701 21.2017C26.4902 21.4564 26.5287 21.742 26.4804 22.0194C26.4321 22.2969 26.2993 22.5526 26.1001 22.7517C26.0401 22.8217 25.9801 22.8817 25.9201 22.9417L25.8401 23.0117C25.0514 23.7451 24.0695 24.2378 23.0101 24.4317C22.8013 24.8407 22.5353 25.2178 22.2201 25.5517C22.1001 25.6817 21.9801 25.8117 21.8501 25.9417L21.7801 26.0117C21.8531 26.02 21.9266 26.0234 22.0001 26.0217C23.8131 26.0231 25.5584 25.3328 26.8801 24.0917C27.0041 23.9826 27.121 23.8657 27.2301 23.7417C27.6216 23.3243 27.8787 22.7989 27.9678 22.2336C28.057 21.6683 27.9742 21.0893 27.7301 20.5717H27.7291Z" fill="white"/>
    </g>
</svg>