<svg width="219" height="107" viewBox="0 0 219 107" fill="none" xmlns="http://www.w3.org/2000/svg">
<g clip-path="url(#clip0_329_14104)">
<path d="M45.2254 81.6044C40.058 84.1586 34.2863 85.2383 28.545 84.7249C22.8037 84.2115 17.3152 82.1249 12.683 78.6944C8.0507 75.264 4.45412 70.6225 2.28871 65.2805C0.123294 59.9386 -0.527091 54.1029 0.40907 48.4152C1.34523 42.7276 3.83168 37.4082 7.595 33.0421C11.3583 28.6759 16.2528 25.4321 21.7401 23.6673C27.2275 21.9024 33.0953 21.685 38.6982 23.0388C44.3012 24.3926 49.4223 27.2653 53.4985 31.3409C51.5443 33.2922 49.2649 35.5744 47.7558 37.0836C44.5088 33.8358 40.3716 31.6239 35.8674 30.7276C31.3632 29.8313 26.6944 30.2908 22.4514 32.048C18.2084 33.8052 14.5818 36.7813 12.0302 40.5997C9.47865 44.4182 8.11676 48.9075 8.11676 53.5C8.11676 58.0925 9.47865 62.5819 12.0302 66.4003C14.5818 70.2188 18.2084 73.1948 22.4514 74.952C26.6944 76.7092 31.3632 77.1688 35.8674 76.2724C40.3716 75.3761 44.5088 73.1642 47.7558 69.9165L53.4985 75.6591C51.0817 78.0768 48.2875 80.0848 45.2254 81.6044Z" fill="#950DFC"/>
<path d="M61.7717 25.3956C66.9391 22.8415 72.7107 21.7617 78.452 22.2751C84.1933 22.7885 89.6818 24.8751 94.3141 28.3056C98.9463 31.7361 102.543 36.3775 104.708 41.7195C106.874 47.0614 107.524 52.8971 106.588 58.5848C105.652 64.2724 103.165 69.5918 99.402 73.9579C95.6387 78.3241 90.7443 81.5679 85.2569 83.3328C79.7695 85.0976 73.9017 85.315 68.2988 83.9612C62.6958 82.6074 57.5747 79.7347 53.4985 75.6591L59.2412 69.9164C62.4882 73.1642 66.6255 75.3761 71.1296 76.2724C75.6338 77.1687 80.3026 76.7092 84.5456 74.952C88.7886 73.1948 92.4153 70.2187 94.9668 66.4003C97.5184 62.5818 98.8803 58.0925 98.8803 53.5C98.8803 48.9075 97.5184 44.4182 94.9668 40.5997C92.4153 36.7813 88.7886 33.8052 84.5456 32.048C80.3026 30.2908 75.6338 29.8312 71.1296 30.7276C66.6255 31.6239 62.4882 33.8358 59.2412 37.0836C57.6265 35.4689 55.33 33.1695 53.4985 31.3409C55.9153 28.9232 58.7096 26.9152 61.7717 25.3956Z" fill="#950DFC"/>
<path d="M81.6015 8.27599C84.1547 13.4429 85.2336 19.2139 84.7198 24.9542C84.2059 30.6946 82.1191 36.1821 78.6889 40.8135C75.2587 45.4448 70.6178 49.0406 65.2765 51.2056C59.9353 53.3705 54.1005 54.0207 48.4137 53.0846C42.7268 52.1486 37.4082 49.6626 33.0426 45.9C28.677 42.1374 25.4334 37.2438 23.6685 31.7574C21.9036 26.271 21.6857 20.4041 23.0388 14.8019C24.3919 9.19961 27.2636 4.07895 31.338 0.00286865L37.0807 5.74841C33.8334 8.99559 31.6219 13.1328 30.7259 17.6369C29.8299 22.1409 30.2896 26.8096 32.047 31.0523C33.8043 35.2951 36.7804 38.9215 40.5987 41.4729C44.4171 44.0242 48.9063 45.386 53.4986 45.386C58.0909 45.386 62.5801 44.0242 66.3985 41.4729C70.2168 38.9215 73.1929 35.2951 74.9502 31.0523C76.7076 26.8096 77.1673 22.1409 76.2713 17.6369C75.3753 13.1328 73.1638 8.99559 69.9165 5.74841L75.6592 0.00572097C78.0766 2.42094 80.0837 5.21439 81.6015 8.27599Z" fill="#0D6EFD"/>
<path d="M25.3956 98.724C22.8425 93.557 21.7636 87.7861 22.2774 82.0458C22.7913 76.3054 24.8781 70.8179 28.3083 66.1865C31.7385 61.5552 36.3794 57.9594 41.7207 55.7944C47.0619 53.6295 52.8967 52.9793 58.5835 53.9153C64.2703 54.8514 69.5889 57.3374 73.9546 61.1C78.3202 64.8626 81.5637 69.7561 83.3286 75.2426C85.0936 80.729 85.3114 86.5959 83.9584 92.1981C82.6053 97.8004 79.7336 102.921 75.6591 106.997L69.9165 101.252C73.1638 98.0044 75.3753 93.8672 76.2713 89.3631C77.1673 84.8591 76.7076 80.1904 74.9502 75.9477C73.1929 71.7049 70.2168 68.0785 66.3985 65.5271C62.5801 62.9758 58.0909 61.614 53.4986 61.614C48.9063 61.614 44.4171 62.9758 40.5987 65.5271C36.7804 68.0785 33.8043 71.7049 32.047 75.9477C30.2896 80.1904 29.8299 84.8591 30.7259 89.3631C31.6219 93.8672 33.8334 98.0044 37.0807 101.252L31.338 106.994C28.9206 104.579 26.9135 101.786 25.3956 98.724Z" fill="#0D6EFD"/>
<path d="M131.058 45.8788C130.541 47.619 129.255 48.937 126.933 48.937C123.777 48.937 122.114 46.4265 122.114 43.3369C122.114 40.3729 123.746 37.6741 126.947 37.6741C129.318 37.6741 130.713 38.9921 131.075 40.8264H130.219C129.717 39.4 128.793 38.4586 126.893 38.4586C124.163 38.4586 123.016 40.952 123.016 43.3226C123.016 45.6933 124.157 48.1524 126.955 48.1524C128.744 48.1524 129.654 47.2281 130.202 45.8702L131.058 45.8788Z" fill="black"/>
<path d="M133.303 44.9858C133.303 47.0084 134.338 48.2637 135.845 48.2637C137.351 48.2637 137.822 47.4306 138.104 46.7888H138.903C138.572 47.8243 137.742 48.9997 135.813 48.9997C133.428 48.9997 132.501 46.9457 132.501 44.9544C132.501 42.7093 133.617 40.7808 135.907 40.7808C138.324 40.7808 139.091 42.8662 139.091 44.3411C139.091 44.5607 139.091 44.7804 139.074 44.9858H133.303ZM138.275 44.2954C138.275 42.7406 137.419 41.5168 135.876 41.5168C134.259 41.5168 133.523 42.6579 133.349 44.2954H138.275Z" fill="black"/>
<path d="M141.005 42.946C141.005 42.2557 141.005 41.5967 141.005 40.969H141.773C141.804 41.2201 141.821 42.2385 141.804 42.4582C142.149 41.6594 142.794 40.7808 144.409 40.7808C145.807 40.7808 147.045 41.5653 147.045 43.7306V48.8114H146.26V43.8561C146.26 42.4582 145.69 41.5482 144.315 41.5482C142.449 41.5482 141.804 43.1029 141.804 44.8118V48.8057H141.02L141.005 42.946Z" fill="black"/>
<path d="M148.38 40.9691H149.841V38.5214H150.625V40.9691H152.491V41.7051H150.625V46.8031C150.625 47.6817 150.813 48.1838 151.566 48.1838C151.842 48.191 152.116 48.1594 152.382 48.0897V48.7801C152.069 48.886 151.74 48.9343 151.41 48.9227C150.405 48.9227 149.841 48.4206 149.841 47.1654V41.7051H148.38V40.9691Z" fill="black"/>
<path d="M153.951 43.1029C153.951 41.7849 153.934 41.2201 153.934 40.969H154.705C154.705 41.2201 154.736 41.7222 154.736 42.7264C154.942 42.1646 155.313 41.6782 155.8 41.331C156.287 40.9838 156.868 40.792 157.466 40.7808V41.6366C155.834 41.745 154.736 42.8747 154.736 44.7433V48.82H153.951V43.1029Z" fill="black"/>
<path d="M165.263 44.8745C165.263 47.0541 164.056 48.9997 161.717 48.9997C159.6 48.9997 158.293 47.2595 158.293 44.8916C158.293 42.6465 159.532 40.7808 161.808 40.7808C163.882 40.7808 165.263 42.4126 165.263 44.8745ZM159.112 44.8916C159.112 46.7574 160.116 48.2637 161.78 48.2637C163.443 48.2637 164.433 46.8658 164.433 44.8916C164.433 43.0402 163.491 41.5168 161.748 41.5168C159.959 41.5168 159.112 43.0088 159.112 44.8916Z" fill="black"/>
<path d="M171.288 42.9917C171.288 42.3184 171.288 41.5796 171.288 40.9691H172.055C172.072 41.2344 172.104 41.9105 172.087 42.3641C172.267 41.8892 172.59 41.4819 173.012 41.1984C173.433 40.9148 173.932 40.7689 174.44 40.7808C175.539 40.7808 176.4 41.3285 176.722 42.3327C176.946 41.8468 177.31 41.4392 177.768 41.1626C178.226 40.8859 178.756 40.7529 179.29 40.7808C180.497 40.7808 181.752 41.4712 181.752 43.6507V48.8114H180.967V43.7448C180.967 42.695 180.591 41.5482 179.133 41.5482C177.61 41.5482 176.919 42.772 176.919 44.2954V48.8114H176.152V43.7677C176.152 42.6265 175.807 41.5539 174.363 41.5539C172.843 41.5539 172.104 42.9033 172.104 44.5037V48.8171H171.319L171.288 42.9917Z" fill="black"/>
<path d="M184.468 44.9858C184.485 47.0084 185.503 48.2637 187.01 48.2637C188.516 48.2637 188.987 47.4306 189.269 46.7888H190.068C189.74 47.8243 188.907 48.9997 186.978 48.9997C184.593 48.9997 183.669 46.9457 183.669 44.9544C183.669 42.7093 184.782 40.7808 187.072 40.7808C189.489 40.7808 190.256 42.8662 190.256 44.3411C190.256 44.5607 190.256 44.7804 190.256 44.9858H184.468ZM189.44 44.2954C189.44 42.7406 188.584 41.5168 187.041 41.5168C185.426 41.5168 184.687 42.6579 184.516 44.2954H189.44ZM189.52 37.0921L187.184 39.5569H186.328L188.476 37.0921H189.52Z" fill="black"/>
<path d="M198.307 37.249V46.552C198.307 47.3051 198.307 48.0269 198.307 48.8114H197.565C197.534 48.6231 197.519 47.8871 197.519 47.4934C197.126 48.4519 196.247 48.9997 194.883 48.9997C192.844 48.9997 191.62 47.3365 191.62 44.9858C191.62 42.5695 192.955 40.7808 195.086 40.7808C196.655 40.7808 197.283 41.454 197.519 41.9561V37.249H198.307ZM192.456 44.9516C192.456 47.0997 193.568 48.2608 194.918 48.2608C196.989 48.2608 197.554 46.8344 197.554 44.7005C197.554 42.675 197.066 41.5139 195.058 41.5139C193.506 41.5168 192.456 42.7578 192.456 44.9544V44.9516Z" fill="black"/>
<path d="M200.88 37.249H201.664V38.7724H200.88V37.249ZM200.88 40.9576H201.664V48.8H200.88V40.9576Z" fill="black"/>
<path d="M210.012 46.5063C209.635 47.8871 208.725 48.9997 206.968 48.9997C205.005 48.9997 203.61 47.5419 203.61 44.9202C203.61 42.772 204.751 40.7808 207.062 40.7808C209.059 40.7808 209.869 42.1929 210.012 43.2912H209.21C208.976 42.3812 208.38 41.5168 207.045 41.5168C205.382 41.5168 204.44 42.9289 204.44 44.8916C204.44 46.7574 205.319 48.2637 206.968 48.2637C208.109 48.2637 208.802 47.6931 209.21 46.5063H210.012Z" fill="black"/>
<path d="M218.265 44.8745C218.265 47.0541 217.055 48.9997 214.719 48.9997C212.599 48.9997 211.296 47.2595 211.296 44.8916C211.296 42.6465 212.537 40.7808 214.81 40.7808C216.884 40.7808 218.265 42.4126 218.265 44.8745ZM212.114 44.8916C212.114 46.7574 213.119 48.2637 214.782 48.2637C216.445 48.2637 217.432 46.8658 217.432 44.8916C217.432 43.0402 216.491 41.5168 214.75 41.5168C212.97 41.5168 212.114 43.0088 212.114 44.8916Z" fill="black"/>
<path d="M139.955 76.0043C138.86 76.552 136.669 77.0998 133.862 77.0998C127.358 77.0998 122.451 72.9917 122.451 65.4261C122.451 58.2028 127.346 53.3103 134.501 53.3103C137.377 53.3103 139.191 53.9236 139.978 54.3344L139.259 56.765C137.797 56.106 136.207 55.7796 134.604 55.8093C129.183 55.8093 125.6 59.2641 125.6 65.3234C125.6 70.972 128.852 74.6007 134.467 74.6007C136.281 74.6007 138.13 74.2242 139.316 73.6422L139.955 76.0043Z" fill="black"/>
<path d="M158.196 68.3417C158.196 74.4695 153.957 77.1454 149.952 77.1454C145.467 77.1454 142.01 73.859 142.01 68.6213C142.01 63.0754 145.638 59.8232 150.226 59.8232C154.984 59.8175 158.196 63.2751 158.196 68.3417ZM145.051 68.5128C145.051 72.1416 147.139 74.8803 150.083 74.8803C152.959 74.8803 155.115 72.1758 155.115 68.4444C155.115 65.6372 153.712 62.0769 150.151 62.0769C146.591 62.0769 145.056 65.3634 145.056 68.5128H145.051Z" fill="black"/>
<path d="M175.867 72.2443C175.867 73.956 175.901 75.4623 176.004 76.7632H173.333L173.162 74.0587H173.094C172.536 75.0133 171.734 75.8023 170.77 76.3447C169.807 76.8871 168.716 77.1635 167.611 77.1454C165.009 77.1454 161.905 75.719 161.905 69.8879V60.1884H164.918V69.363C164.918 72.5011 165.876 74.635 168.626 74.635C169.484 74.6204 170.319 74.3527 171.025 73.8655C171.732 73.3782 172.279 72.6932 172.597 71.8963C172.784 71.404 172.88 70.8822 172.883 70.3558V60.1941H175.895L175.867 72.2443Z" fill="black"/>
<path d="M180.448 73.6821C181.642 74.4283 183.013 74.8419 184.419 74.8803C186.61 74.8803 187.637 73.7849 187.637 72.4155C187.637 70.9891 186.781 70.1903 184.556 69.3687C181.589 68.3018 180.18 66.6643 180.18 64.6787C180.18 62.0085 182.337 59.8289 185.886 59.8289C187.309 59.815 188.713 60.1688 189.959 60.856L189.206 63.0469C188.187 62.419 187.014 62.0871 185.817 62.0884C184.037 62.0884 183.044 63.1154 183.044 64.3478C183.044 65.7171 184.037 66.3447 186.182 67.1549C189.058 68.2504 190.53 69.6882 190.53 72.153C190.53 75.0629 188.271 77.1169 184.334 77.1169C182.71 77.1431 181.106 76.7501 179.678 75.9758L180.448 73.6821Z" fill="black"/>
<path d="M197.776 55.5383C197.81 56.5653 197.057 57.3869 195.859 57.3869C195.617 57.3901 195.377 57.3443 195.153 57.2521C194.929 57.1599 194.726 57.0232 194.557 56.8505C194.387 56.6777 194.254 56.4723 194.166 56.2468C194.078 56.0213 194.037 55.7803 194.045 55.5383C194.038 55.2892 194.082 55.0414 194.174 54.81C194.267 54.5785 194.405 54.3683 194.581 54.1921C194.757 54.0159 194.968 53.8775 195.199 53.7852C195.431 53.6929 195.678 53.6488 195.927 53.6555C196.175 53.6468 196.423 53.6899 196.653 53.7819C196.884 53.8739 197.092 54.0129 197.266 54.1899C197.44 54.367 197.575 54.5784 197.663 54.8105C197.751 55.0426 197.789 55.2905 197.776 55.5383ZM194.427 76.7632V60.1941H197.439V76.7632H194.427Z" fill="black"/>
<path d="M202.432 64.6787C202.432 62.967 202.398 61.5634 202.295 60.1941H204.965L205.136 62.9328H205.205C206.026 61.358 207.943 59.8175 210.679 59.8175C212.962 59.8175 216.533 61.1869 216.533 66.8697V76.7632H213.521V67.212C213.521 64.5418 212.528 62.3166 209.689 62.3166C208.775 62.3306 207.889 62.6374 207.161 63.1919C206.434 63.7464 205.903 64.5194 205.647 65.3976C205.504 65.8515 205.436 66.3255 205.444 66.8012V76.7632H202.432V64.6787Z" fill="black"/>
</g>
<defs>
<clipPath id="clip0_329_14104">
<rect width="218.265" height="107" fill="white"/>
</clipPath>
</defs>
</svg>
