<svg width="36" height="38" viewBox="0 0 36 38" fill="none" xmlns="http://www.w3.org/2000/svg">
    <mask id="mask0_145_308" style="mask-type:luminance" maskUnits="userSpaceOnUse" x="7" y="7" width="22" height="23">
    <path d="M7 7.86182L7 29.8618H29V7.86182H7Z" fill="white"/>
    </mask>
    <g mask="url(#mask0_145_308)">
    <path d="M29 18.5767C28.9824 20.447 28.4803 22.2808 27.5426 23.8992C26.605 25.5176 25.2638 26.8653 23.6499 27.8108C22.0361 28.7562 20.2047 29.2672 18.3345 29.2938C16.4643 29.3204 14.6191 28.8617 12.9791 27.9625L7.94227 29.5625C7.5516 29.6866 7.18578 29.3137 7.31735 28.9255L8.94925 24.1103C7.93355 22.4434 7.39746 20.5286 7.39999 18.5767C7.42348 15.7279 8.57164 13.0037 10.5944 10.9976C12.6172 8.99139 15.3507 7.86572 18.1996 7.86572C21.0485 7.86572 23.7821 8.99139 25.8048 10.9976C27.8276 13.0037 28.9765 15.7279 29 18.5767ZM18.1985 9.57034C15.8003 9.5637 13.4974 10.5087 11.7952 12.198C10.093 13.8873 9.13043 16.1829 9.11878 18.5811C9.11721 20.4818 9.72331 22.3333 10.8486 23.8652L9.71544 27.2073L13.2036 26.0991C14.569 26.9947 16.1504 27.506 17.7816 27.5793C19.4129 27.6525 21.0338 27.285 22.4739 26.5153C23.914 25.7457 25.1202 24.6023 25.9658 23.2054C26.8113 21.8084 27.2649 20.2095 27.279 18.5767C27.2664 16.1791 26.3033 13.8844 24.601 12.196C22.8987 10.5076 20.5961 9.56331 18.1985 9.57034ZM23.6536 21.047C23.5861 20.9384 23.4099 20.8723 23.1457 20.741C22.8815 20.6096 21.5788 19.974 21.3374 19.8882C21.0959 19.8023 20.9169 19.7553 20.7407 20.0188C20.5646 20.2823 20.0582 20.8731 19.9026 21.0463C19.747 21.2195 19.5944 21.2444 19.3295 21.1145C18.5505 20.8055 17.8305 20.3646 17.2012 19.8111C16.6228 19.2811 16.1267 18.6679 15.729 17.9918C15.5734 17.7291 15.7128 17.5874 15.8442 17.4568C15.9623 17.3386 16.1091 17.15 16.242 16.9952C16.3514 16.8622 16.4407 16.7138 16.5069 16.5548C16.5415 16.482 16.5576 16.4018 16.5538 16.3213C16.5499 16.2407 16.5263 16.1624 16.4849 16.0932C16.4188 15.9611 15.8904 14.6702 15.6688 14.144C15.4471 13.6178 15.2284 13.7036 15.0736 13.7036C14.9187 13.7036 14.7426 13.6824 14.5665 13.6824C14.4327 13.6852 14.3009 13.7158 14.1796 13.7722C14.0582 13.8285 13.9498 13.9094 13.8612 14.0097C13.5627 14.2902 13.3262 14.6299 13.1667 15.0072C13.0072 15.3844 12.9283 15.7908 12.935 16.2004C13.0213 17.1918 13.3969 18.136 14.0153 18.9158C14.1489 19.0904 15.8501 21.8301 18.5383 22.8788C21.2266 23.9275 21.231 23.5789 21.7154 23.5342C22.0841 23.4635 22.4337 23.3158 22.7415 23.1008C23.0493 22.8858 23.3083 22.6084 23.5017 22.2866C23.6717 21.8969 23.725 21.4661 23.6536 21.047Z" fill="white"/>
    </g>
</svg>